<svg width="21" height="21" viewBox="0 0 21 21" fill="none" xmlns="http://www.w3.org/2000/svg">
<path d="M18.6712 8.86775H18V8.83317H10.5V12.1665H15.2095C14.5225 14.1069 12.6762 15.4998 10.5 15.4998C7.73871 15.4998 5.49996 13.2611 5.49996 10.4998C5.49996 7.73859 7.73871 5.49984 10.5 5.49984C11.7745 5.49984 12.9341 5.98067 13.817 6.76609L16.1741 4.409C14.6858 3.02192 12.695 2.1665 10.5 2.1665C5.89788 2.1665 2.16663 5.89775 2.16663 10.4998C2.16663 15.1019 5.89788 18.8332 10.5 18.8332C15.102 18.8332 18.8333 15.1019 18.8333 10.4998C18.8333 9.94109 18.7758 9.39567 18.6712 8.86775Z" fill="#FFC107"/>
<path d="M3.12756 6.62109L5.86548 8.629C6.60631 6.79484 8.40048 5.49984 10.5001 5.49984C11.7746 5.49984 12.9342 5.98067 13.8171 6.76609L16.1742 4.409C14.6859 3.02192 12.6951 2.1665 10.5001 2.1665C7.29923 2.1665 4.5234 3.97359 3.12756 6.62109Z" fill="#FF3D00"/>
<path d="M10.5 18.8331C12.6525 18.8331 14.6084 18.0094 16.0871 16.6698L13.508 14.4873C12.6432 15.145 11.5865 15.5007 10.5 15.4998C8.33255 15.4998 6.49213 14.1177 5.7988 12.189L3.0813 14.2827C4.46047 16.9815 7.2613 18.8331 10.5 18.8331Z" fill="#4CAF50"/>
<path d="M18.6713 8.86808H18V8.8335H10.5V12.1668H15.2096C14.8809 13.0903 14.2889 13.8973 13.5067 14.4881L13.5079 14.4872L16.0871 16.6697C15.9046 16.8356 18.8333 14.6668 18.8333 10.5002C18.8333 9.94141 18.7758 9.396 18.6713 8.86808Z" fill="#1976D2"/>
</svg>
