<svg width="24" height="24" viewBox="0 0 24 24" fill="none" xmlns="http://www.w3.org/2000/svg">
<path d="M13.1586 1.24445L15.8655 6.72931C16.0538 7.11079 16.4177 7.37512 16.8387 7.43619L22.8918 8.31579C23.9521 8.46998 24.3752 9.77261 23.6082 10.52L19.2282 14.7894C18.9239 15.0863 18.7847 15.5143 18.8568 15.9333L19.8906 21.9618C20.0718 23.0177 18.9634 23.8227 18.0152 23.3246L12.6014 20.4785C12.225 20.2807 11.7749 20.2807 11.3984 20.4785L5.98468 23.3246C5.03649 23.8232 3.92811 23.0177 4.10933 21.9618L5.14312 15.9333C5.21521 15.5143 5.07604 15.0863 4.77166 14.7894L0.391685 10.52C-0.375274 9.77211 0.047755 8.46948 1.10808 8.31579L7.16115 7.43619C7.58217 7.37512 7.94613 7.11079 8.13436 6.72931L10.8412 1.24445C11.3148 0.28375 12.6846 0.28375 13.1586 1.24445Z" fill="#EEEEEE"/>
</svg>
