<svg width="71" height="17" viewBox="0 0 71 17" fill="none" xmlns="http://www.w3.org/2000/svg">
<path d="M9.27344 5.14844C9.20052 4.46615 8.89323 3.9349 8.35156 3.55469C7.8151 3.17448 7.11719 2.98437 6.25781 2.98437C5.65365 2.98437 5.13542 3.07552 4.70313 3.25781C4.27083 3.4401 3.9401 3.6875 3.71094 4C3.48177 4.3125 3.36458 4.66927 3.35938 5.07031C3.35938 5.40365 3.4349 5.69271 3.58594 5.9375C3.74219 6.18229 3.95313 6.39062 4.21875 6.5625C4.48438 6.72917 4.77865 6.86979 5.10156 6.98437C5.42448 7.09896 5.75 7.19531 6.07813 7.27344L7.57813 7.64844C8.18229 7.78906 8.76302 7.97917 9.32031 8.21875C9.88281 8.45833 10.3854 8.76042 10.8281 9.125C11.276 9.48958 11.6302 9.92969 11.8906 10.4453C12.151 10.9609 12.2813 11.5651 12.2813 12.2578C12.2813 13.1953 12.0417 14.0208 11.5625 14.7344C11.0833 15.4427 10.3906 15.9974 9.48438 16.3984C8.58333 16.7943 7.49219 16.9922 6.21094 16.9922C4.96615 16.9922 3.88542 16.7995 2.96875 16.4141C2.05729 16.0286 1.34375 15.4661 0.828125 14.7266C0.317708 13.987 0.0416667 13.0859 2.98023e-08 12.0234H2.85156C2.89323 12.5807 3.0651 13.0443 3.36719 13.4141C3.66927 13.7839 4.0625 14.0599 4.54688 14.2422C5.03646 14.4245 5.58333 14.5156 6.1875 14.5156C6.81771 14.5156 7.36979 14.4219 7.84375 14.2344C8.32292 14.0417 8.69792 13.776 8.96875 13.4375C9.23958 13.0937 9.3776 12.6927 9.38281 12.2344C9.3776 11.8177 9.25521 11.474 9.01563 11.2031C8.77604 10.9271 8.4401 10.6979 8.00781 10.5156C7.58073 10.3281 7.08073 10.1615 6.50781 10.0156L4.6875 9.54687C3.36979 9.20833 2.32813 8.69531 1.5625 8.00781C0.802083 7.3151 0.421875 6.39583 0.421875 5.25C0.421875 4.30729 0.677083 3.48177 1.1875 2.77344C1.70313 2.0651 2.40365 1.51562 3.28906 1.125C4.17448 0.729166 5.17708 0.531249 6.29688 0.531249C7.43229 0.531249 8.42708 0.729166 9.28125 1.125C10.1406 1.51562 10.8151 2.0599 11.3047 2.75781C11.7943 3.45052 12.0469 4.2474 12.0625 5.14844H9.27344ZM17.7637 0.75V16.75H14.8652V0.75H17.7637ZM34.0508 0.75V16.75H31.4727L23.9336 5.85156H23.8008V16.75H20.9023V0.75H23.4961L31.0273 11.6562H31.168V0.75H34.0508ZM47.2949 0.75H50.1934V11.2031C50.1934 12.349 49.9225 13.3568 49.3809 14.2266C48.8444 15.0964 48.0892 15.776 47.1152 16.2656C46.1413 16.75 45.0033 16.9922 43.7012 16.9922C42.3939 16.9922 41.2533 16.75 40.2793 16.2656C39.3053 15.776 38.5501 15.0964 38.0137 14.2266C37.4772 13.3568 37.209 12.349 37.209 11.2031V0.75H40.1074V10.9609C40.1074 11.6276 40.2533 12.2214 40.5449 12.7422C40.8418 13.263 41.2585 13.6719 41.7949 13.9688C42.3314 14.2604 42.9668 14.4062 43.7012 14.4062C44.4355 14.4062 45.071 14.2604 45.6074 13.9688C46.1491 13.6719 46.5658 13.263 46.8574 12.7422C47.1491 12.2214 47.2949 11.6276 47.2949 10.9609V0.75ZM53.3437 0.75H56.8906L61.6406 12.3437H61.8281L66.5781 0.75H70.125V16.75H67.3438V5.75781H67.1953L62.7734 16.7031H60.6953L56.2734 5.73437H56.125V16.75H53.3437V0.75Z" fill="white"/>
</svg>
